<?xml version="1.0" encoding="UTF-8"?>
<svg width="400pt" height="400pt" style="isolation:isolate" viewBox="0 0 400 400" xmlns="http://www.w3.org/2000/svg">
<defs>
<clipPath id="a">
<rect width="400" height="400"/>
</clipPath>
</defs>
<g clip-path="url(#a)">
<rect width="400" height="400" fill="#000101" fill-opacity="0"/>
<circle cx="200" cy="200" r="200" fill="#d00909" vector-effect="non-scaling-stroke"/>
<path d="m91.894 146.32q14.508 0 23.808 4.092t14.694 12.648q3.72 5.766 5.766 13.113t2.046 16.647q0 7.812-1.488 15.996t-4.278 15.81-6.603 14.415-8.463 11.811q-8.37 9.3-19.158 13.113t-26.226 3.813q-14.88 0-24.087-3.348t-14.601-10.788q-4.464-5.394-6.603-13.671t-2.139-19.251q0-9.858 1.86-19.251t5.487-17.577 8.835-14.88 11.904-11.346q7.812-5.58 17.391-8.463t21.855-2.883zm-20.274 108.44q3.72 0 7.161-3.906t6.417-10.323 5.301-14.694 3.999-17.112 2.604-17.298 0.93-15.531q0-9.486-1.674-13.113t-4.836-3.627q-3.906 0-7.44 3.813t-6.51 10.044-5.487 14.415-4.278 16.74-2.697 16.926-0.93 15.252q0 10.416 2.046 14.415t5.394 3.999zm144.52-108.44q14.508 0 23.808 4.092t14.694 12.648q3.72 5.766 5.766 13.113t2.046 16.647q0 7.812-1.488 15.996t-4.278 15.81-6.603 14.415-8.463 11.811q-8.37 9.3-19.158 13.113t-26.226 3.813q-14.88 0-24.087-3.348t-14.601-10.788q-4.464-5.394-6.603-13.671t-2.139-19.251q0-9.858 1.86-19.251t5.487-17.577 8.835-14.88 11.904-11.346q7.812-5.58 17.391-8.463t21.855-2.883zm-20.274 108.44q3.72 0 7.161-3.906t6.417-10.323 5.301-14.694 3.999-17.112 2.604-17.298 0.93-15.531q0-9.486-1.674-13.113t-4.836-3.627q-3.906 0-7.44 3.813t-6.51 10.044-5.487 14.415-4.278 16.74-2.697 16.926-0.93 15.252q0 10.416 2.046 14.415t5.394 3.999zm180.98-106.58-4.092 18.042q-12.648 5.952-21.948 16.461t-15.252 23.901-8.835 28.737-2.883 30.969h-40.176q0-4.65 1.116-11.625t3.534-15.345 6.324-17.484 9.486-17.856 13.02-16.554 16.926-13.578h-56.544l5.58-25.668h93.744z" fill="#e8e8e8"/>
</g>
</svg>
