<?xml version="1.0" encoding="UTF-8"?>
<svg width="200pt" height="200pt" style="isolation:isolate" viewBox="0 0 200 200" xmlns="http://www.w3.org/2000/svg">
<path d="m197 124.19c-13.356 53.571-67.616 86.174-121.19 72.814-53.556-13.356-86.159-67.618-72.797-121.19 13.35-53.577 67.61-86.183 121.17-72.827 53.575 13.356 86.175 67.624 72.819 121.2z" fill="#ff0"/>
<path d="m147.58 87.592c1.991-13.306-8.14-20.459-21.993-25.231l4.493-18.024-10.972-2.735-4.375 17.55c-2.884-0.719-5.846-1.397-8.79-2.069l4.406-17.665-10.966-2.735-4.496 18.019c-2.388-0.544-4.732-1.081-7.007-1.647l0.013-0.056-15.131-3.778-2.919 11.718s8.14 1.866 7.969 1.982c4.443 1.109 5.246 4.05 5.112 6.381l-5.119 20.534c0.307 0.078 0.703 0.191 1.141 0.366-0.366-0.091-0.756-0.191-1.159-0.288l-7.175 28.765c-0.544 1.35-1.922 3.375-5.029 2.607 0.11 0.159-7.975-1.991-7.975-1.991l-5.446 12.559 14.278 3.56c2.656 0.665 5.259 1.362 7.822 2.018l-4.541 18.232 10.959 2.734 4.497-18.037c2.994 0.812 5.9 1.562 8.744 2.268l-4.481 17.953 10.972 2.735 4.54-18.197c18.71 3.54 32.778 2.112 38.7-14.809 4.772-13.625-0.237-21.485-10.081-26.609 7.169-1.654 12.569-6.369 14.009-16.11zm-25.068 35.153c-3.391 13.625-26.332 6.259-33.769 4.413l6.025-24.153c7.437 1.856 31.287 5.531 27.744 19.74zm3.393-35.35c-3.093 12.394-22.187 6.097-28.381 4.554l5.463-21.907c6.193 1.544 26.14 4.425 22.918 17.353z" fill="#5e016b"/>
<g clip-path="url(#c)">
<text transform="matrix(.971 .239 -.239 .971 18.221 100.45)" fill="#5e016b" font-family="'Amaranth'" font-size="62px" font-weight="700">m</text>
</g>
<defs>
<clipPath id="c">
<rect transform="matrix(.971 .239 -.239 .971 33.558 33.241)" width="53.824" height="91.965"/>
</clipPath>
</defs>
<mask id="a">
<ellipse cx="100" cy="100" rx="100" ry="99.999" fill="#fff" vector-effect="non-scaling-stroke"/>
</mask>
<ellipse cx="100" cy="100" rx="100" ry="99.999" fill="none" vector-effect="non-scaling-stroke"/>
<ellipse cx="100" cy="100" rx="100" ry="99.999" fill="none" mask="url(#a)" stroke="#5e016b" stroke-dasharray="0,0" stroke-linecap="square" stroke-miterlimit="3" stroke-width="12" vector-effect="non-scaling-stroke"/>
<mask id="b">
<ellipse cx="100" cy="100" rx="90.625" ry="90.624" fill="#fff" vector-effect="non-scaling-stroke"/>
</mask>
<ellipse cx="100" cy="100" rx="90.625" ry="90.624" fill="none" vector-effect="non-scaling-stroke"/>
<ellipse cx="100" cy="100" rx="90.625" ry="90.624" fill="none" mask="url(#b)" stroke="#5e016b" stroke-dasharray="0,0" stroke-linecap="square" stroke-miterlimit="3" stroke-width="6" vector-effect="non-scaling-stroke"/>
</svg>
